<svg width="734" height="640" viewBox="0 0 734 640" fill="none" xmlns="http://www.w3.org/2000/svg" xmlns:xlink="http://www.w3.org/1999/xlink">
<rect width="734" height="640" fill="url(#pattern0)"/>
<defs>
<pattern id="pattern0" patternContentUnits="objectBoundingBox" width="1" height="1">
<use xlink:href="#home" transform="translate(-0.00408719) scale(0.0013624 0.0015625)"/>
</pattern>
<image id="home" width="740" height="640" xlink:href="home.png"/>
</defs>
<path d="M224 528.159L447.084 538.208L517 521V548.256L447.791 573L224 559.184V528.159Z" fill="#3595F6" fill-opacity="0.75"/>
<path d="M224 529.788V501L446.579 504.8L517 501V524.03L446.983 539L224 529.788Z" fill="#3595F6" fill-opacity="0.75"/>
<path d="M224 503.667V477H447.286H517V501.533L448.297 509L224 503.667Z" fill="#3595F6" fill-opacity="0.75"/>
<path d="M224.007 478.647V452.39L448.354 448.504L516.986 455.541V478.647H448.05" fill="#3595F6" fill-opacity="0.75"/>
<path d="M224 454.656V425.678L447.791 422L517 434.26V458L447.286 450.532L224 454.656Z" fill="#3595F6" fill-opacity="0.75"/>
<path d="M224 428.632V401.883L445.747 388L516.986 413.959V438L445.747 424.117L224 428.632Z" fill="#3595F6" fill-opacity="0.75"/>
<path d="M224 407.075V379.185L446.951 361L516.986 392.907V416L446.449 391.791L224 407.075Z" fill="#3595F6" fill-opacity="0.75"/>
<path d="M224 382.597V354.674L447.252 332L516.986 372.88V396L444.743 363.944L224 382.597Z" fill="#3595F6" fill-opacity="0.75"/>
<path d="M224 356.111V329.444L447.753 302L516.986 350.889V375L447.452 332.778L224 356.111Z" fill="#3595F6" fill-opacity="0.75"/>
<path d="M224 331.066V304.622L447.252 273L516.986 329.192V352L446.449 305.393L224 331.066Z" fill="#3595F6" fill-opacity="0.75"/>
<path d="M224 307.051V280.924L446.29 245L516.986 309.554V331L446.99 275.808L224 307.051Z" fill="#3595F6" fill-opacity="0.75"/>
<path d="M224 281.859V255.882L446.72 218L517 287.271V310L447.828 246.899L224 281.859Z" fill="#3595F6" fill-opacity="0.75"/>
<path d="M224 258.231V230.758L447.828 189L517 266.253V289L447.526 218.67L224 258.231Z" fill="#3595F6" fill-opacity="0.75"/>
<path d="M224 235.009V206.985L446.318 158L517 246.555V272L447.526 189.835L224 235.009Z" fill="#3595F6" fill-opacity="0.75"/>
<path d="M224 208.759V181.444L446.276 129L517 221.87V247L445.569 160.357L224 208.759Z" fill="#3595F6" fill-opacity="0.75"/>
<path d="M224 182.357V155.617L445.311 100L517 198.721V223L446.821 130.697L224 182.357Z" fill="#3595F6" fill-opacity="0.75"/>
<path d="M224 157.294V129.535L447.526 69L517 177.579V200L447.224 102.097L224 157.294Z" fill="#3595F6" fill-opacity="0.75"/>
</svg>
